<svg version="1" xmlns="http://www.w3.org/2000/svg" width="1365.333" height="1365.333" viewBox="0 0 1024.000000 1024.000000"><path d="M483.9 100.1c-87.7 5.9-172.7 40.5-239.4 97.4-11.9 10.1-33.6 31.6-43.9 43.5-98.3 113-127.8 268.9-77.7 410.5 21.7 61.2 61.2 120.5 109.6 164.8 22.1 20.2 50.8 41.2 75.5 55.2 39.2 22.3 84.2 38.7 129 46.9 28.6 5.2 39.2 6.1 75 6.1s46.4-.9 75-6.1c76.2-14 146.4-49 204.5-102.1 36.3-33.2 67.9-75.1 90.3-119.8 50.3-100.7 57.1-218.9 18.5-325.5-26.9-74.2-77-141.7-141-189.6-78.8-59-177-88-275.4-81.3zm222.2 107c15.4 1.2 21.5 2.7 31.3 7.6 10.6 5.3 18.1 10.8 28 20.3 10.5 10.1 16.1 17.6 21.6 29.1 9.7 20.3 9.2 42.6-1.6 64-6.1 12.1-10.9 16.1-24.9 20.1-7.3 2.1-9.9 2.3-30 2.2-24.4 0-29.5-.5-89.5-8.9-48.9-6.8-66.7-8.5-90.4-8.5-33 0-51.3 4.7-63.8 16.3-3.2 2.9-3.8 4.1-3.8 7.5 0 12.1 30.6 43.1 87.3 88.4 22.7 18.2 73.9 56.6 101.6 76.3l18.2 13-32.7.7c-52.6 1-92.4 3.6-131 8.3-96.5 11.8-146.2 33.9-149.1 66.3-1.1 11.4 6.4 22.2 23.1 33.4 29.1 19.4 69.9 34.2 186.2 67.3 91.2 26 115.6 34.1 136.2 45 18.3 9.7 22.7 16.8 17.1 27.7-18.8 36.8-135.2 44.3-330.1 21.2-12-1.4-33.6-4.3-48-6.3l-26.3-3.7 8.5-.7c4.7-.3 23.4-.9 41.5-1.2 50.7-.8 102.5-3 147.5-6.1 62.3-4.2 97.4-10.5 98.8-17.6.7-3.7-4.3-4.6-60.8-11.8-113.2-14.4-155.4-25.1-213.1-54.1-61.2-30.6-106.8-69.7-120.9-103.6-8.3-19.8-7.8-36.1 1.4-54 19.9-38.6 62.2-61.3 130-70 18.8-2.4 76.3-2.4 100.6 0 23.6 2.4 48.8 6.1 70.1 10.2 9.6 1.9 17.9 3.5 18.3 3.5.5 0-6.8-4.8-16-10.6-59.1-37.1-113.1-80.2-140.8-112.5-16.1-18.7-25-33.4-29.6-48.7-3.2-10.5-2.6-23.4 1.4-31.7 9.2-18.6 28.6-24.3 79.1-23.2 28.8.6 47.7 2.4 113 10.7 63.5 8 76 9.2 97 9.4 19.9.1 27.5-1.3 32.1-5.9 3-3 3.2-8.5.3-13.1-9.4-15.3-58.7-31.3-131.4-42.8-11.5-1.8-20.3-3.6-19.5-3.9 4.2-1.6 49.3-7 72-8.7 8-.6 16.3-1.2 18.5-1.3 10.3-.9 60.7-.6 72.6.4z"/><path d="M209.4 845.3c54.9 53.5 122.4 91.7 196 110.7 97.9 25.4 201.1 15 293.1-29.4 43.9-21.3 81.2-47.3 116.5-81.6 6.3-6.2 7.9-7.9 3.5-4-78.2 70.8-167.8 110.3-270 119-15.4 1.3-57.5 1.3-73 0-95-8-183.5-44.8-255-105.9-5.5-4.7-12.7-11-16.1-14.1-3.4-3-1.1-.6 5 5.3z"/></svg>